{
	"patcher" : 	{
		"fileversion" : 1,
		"appversion" : 		{
			"major" : 8,
			"minor" : 2,
			"revision" : 0,
			"architecture" : "x64",
			"modernui" : 1
		}
,
		"classnamespace" : "box",
		"rect" : [ 665.0, 93.0, 510.0, 347.0 ],
		"bglocked" : 0,
		"openinpresentation" : 1,
		"default_fontsize" : 12.0,
		"default_fontface" : 0,
		"default_fontname" : "Arial",
		"gridonopen" : 1,
		"gridsize" : [ 15.0, 15.0 ],
		"gridsnaponopen" : 1,
		"objectsnaponopen" : 1,
		"statusbarvisible" : 2,
		"toolbarvisible" : 1,
		"lefttoolbarpinned" : 0,
		"toptoolbarpinned" : 0,
		"righttoolbarpinned" : 0,
		"bottomtoolbarpinned" : 0,
		"toolbars_unpinned_last_save" : 0,
		"tallnewobj" : 0,
		"boxanimatetime" : 200,
		"enablehscroll" : 1,
		"enablevscroll" : 1,
		"devicewidth" : 0.0,
		"description" : "",
		"digest" : "",
		"tags" : "",
		"style" : "",
		"subpatcher_template" : "",
		"assistshowspatchername" : 0,
		"boxes" : [ 			{
				"box" : 				{
					"fontface" : 0,
					"fontname" : "Lato",
					"fontsize" : 12.0,
					"id" : "obj-36",
					"linecount" : 17,
					"maxclass" : "comment",
					"numinlets" : 1,
					"numoutlets" : 0,
					"patching_rect" : [ 50.5, 106.933337867260036, 89.0, 251.0 ],
					"presentation" : 1,
					"presentation_linecount" : 3,
					"presentation_rect" : [ 7.5, 103.933337867260036, 488.0, 50.0 ],
					"text" : "These models come from the PhISEM (Physically Informed Stochastic Event Modeling) and PhOLIES (Physically-Oriented Library of Imitated Environmental Sounds) collections of the Synthesis Toolkit (STK)."
				}

			}
, 			{
				"box" : 				{
					"fontface" : 0,
					"fontname" : "Lato",
					"fontsize" : 12.0,
					"id" : "obj-25",
					"linecount" : 5,
					"maxclass" : "comment",
					"numinlets" : 1,
					"numoutlets" : 0,
					"patching_rect" : [ 113.5, 386.896300719844021, 87.0, 78.0 ],
					"presentation" : 1,
					"presentation_linecount" : 2,
					"presentation_rect" : [ 348.5, 297.933337867260036, 148.0, 35.0 ],
					"text" : "Breaking sticks, crunching snow, and more"
				}

			}
, 			{
				"box" : 				{
					"fontface" : 0,
					"fontname" : "Lato",
					"fontsize" : 12.0,
					"id" : "obj-23",
					"linecount" : 2,
					"maxclass" : "comment",
					"numinlets" : 1,
					"numoutlets" : 0,
					"patching_rect" : [ 116.5, 356.266669213771877, 87.0, 35.0 ],
					"presentation" : 1,
					"presentation_rect" : [ 348.5, 267.896300719844021, 99.0, 21.0 ],
					"text" : "All of the shakers"
				}

			}
, 			{
				"box" : 				{
					"fontface" : 0,
					"fontname" : "Lato",
					"fontsize" : 12.0,
					"id" : "obj-21",
					"maxclass" : "comment",
					"numinlets" : 1,
					"numoutlets" : 0,
					"patching_rect" : [ 83.5, 347.233336925506592, 87.0, 21.0 ],
					"presentation" : 1,
					"presentation_rect" : [ 348.5, 236.266669213771877, 87.0, 21.0 ],
					"text" : "Water droplets"
				}

			}
, 			{
				"box" : 				{
					"fontface" : 0,
					"fontname" : "Lato",
					"fontsize" : 12.0,
					"id" : "obj-19",
					"maxclass" : "comment",
					"numinlets" : 1,
					"numoutlets" : 0,
					"patching_rect" : [ 83.5, 314.733336925506592, 80.0, 21.0 ],
					"presentation" : 1,
					"presentation_rect" : [ 348.5, 206.457145546163872, 80.0, 21.0 ],
					"text" : "A tambourine"
				}

			}
, 			{
				"box" : 				{
					"fontface" : 0,
					"fontname" : "Lato",
					"fontsize" : 12.0,
					"id" : "obj-17",
					"maxclass" : "comment",
					"numinlets" : 1,
					"numoutlets" : 0,
					"patching_rect" : [ 83.5, 282.400002598762512, 67.0, 21.0 ],
					"presentation" : 1,
					"presentation_rect" : [ 348.5, 176.647621878555867, 67.0, 21.0 ],
					"text" : "Sleigh bells"
				}

			}
, 			{
				"box" : 				{
					"fontface" : 0,
					"fontname" : "Lato",
					"fontsize" : 12.0,
					"id" : "obj-15",
					"maxclass" : "comment",
					"numinlets" : 1,
					"numoutlets" : 0,
					"patching_rect" : [ 83.5, 246.733339905738831, 57.0, 21.0 ],
					"presentation" : 1,
					"presentation_rect" : [ 104.5, 297.74815213017996, 57.0, 21.0 ],
					"text" : "A maraca"
				}

			}
, 			{
				"box" : 				{
					"fontface" : 0,
					"fontname" : "Lato",
					"fontsize" : 12.0,
					"id" : "obj-13",
					"maxclass" : "comment",
					"numinlets" : 1,
					"numoutlets" : 0,
					"patching_rect" : [ 83.5, 214.400005578994751, 55.0, 21.0 ],
					"presentation" : 1,
					"presentation_rect" : [ 104.5, 267.938628462571955, 53.0, 21.0 ],
					"text" : "A sekere"
				}

			}
, 			{
				"box" : 				{
					"fontface" : 0,
					"fontname" : "Lato",
					"fontsize" : 12.0,
					"id" : "obj-11",
					"maxclass" : "comment",
					"numinlets" : 1,
					"numoutlets" : 0,
					"patching_rect" : [ 83.5, 180.066671252250671, 55.0, 21.0 ],
					"presentation" : 1,
					"presentation_rect" : [ 104.5, 238.129104794963951, 46.0, 21.0 ],
					"text" : "A guiro"
				}

			}
, 			{
				"box" : 				{
					"fontface" : 0,
					"fontname" : "Lato",
					"fontsize" : 12.0,
					"id" : "obj-9",
					"maxclass" : "comment",
					"numinlets" : 1,
					"numoutlets" : 0,
					"patching_rect" : [ 83.5, 146.733336925506592, 55.0, 21.0 ],
					"presentation" : 1,
					"presentation_rect" : [ 104.5, 208.319581127355974, 55.0, 21.0 ],
					"text" : "A cabasa"
				}

			}
, 			{
				"box" : 				{
					"fontface" : 0,
					"fontname" : "Lato",
					"fontsize" : 12.0,
					"id" : "obj-7",
					"maxclass" : "comment",
					"numinlets" : 1,
					"numoutlets" : 0,
					"patching_rect" : [ 83.5, 111.733336925506592, 121.0, 21.0 ],
					"presentation" : 1,
					"presentation_rect" : [ 104.5, 178.510057459747998, 121.0, 21.0 ],
					"text" : "Bamboo wind chimes"
				}

			}
, 			{
				"box" : 				{
					"id" : "obj-2",
					"maxclass" : "newobj",
					"numinlets" : 1,
					"numoutlets" : 1,
					"outlettype" : [ "" ],
					"patching_rect" : [ 335.0, 461.0, 51.0, 22.0 ],
					"text" : "pcontrol"
				}

			}
, 			{
				"box" : 				{
					"id" : "obj-5",
					"maxclass" : "message",
					"numinlets" : 2,
					"numoutlets" : 1,
					"outlettype" : [ "" ],
					"patching_rect" : [ 335.0, 431.0, 48.0, 22.0 ],
					"text" : "help $1"
				}

			}
, 			{
				"box" : 				{
					"id" : "obj-3",
					"maxclass" : "newobj",
					"numinlets" : 1,
					"numoutlets" : 1,
					"outlettype" : [ "" ],
					"patching_rect" : [ 335.0, 400.0, 94.0, 22.0 ],
					"text" : "prepend symbol"
				}

			}
, 			{
				"box" : 				{
					"id" : "obj-20",
					"maxclass" : "message",
					"numinlets" : 2,
					"numoutlets" : 1,
					"outlettype" : [ "" ],
					"patching_rect" : [ 12.00000387430191, 346.733336925506592, 45.0, 22.0 ],
					"presentation" : 1,
					"presentation_rect" : [ 256.5, 237.859263572428006, 80.0, 22.0 ],
					"style" : "Max 12 Regular",
					"text" : "wuter~"
				}

			}
, 			{
				"box" : 				{
					"id" : "obj-14",
					"maxclass" : "message",
					"numinlets" : 2,
					"numoutlets" : 1,
					"outlettype" : [ "" ],
					"patching_rect" : [ 11.999999761581421, 246.733339905738831, 52.0, 22.0 ],
					"presentation" : 1,
					"presentation_rect" : [ 12.5, 297.74815213017996, 80.0, 22.0 ],
					"style" : "Max 12 Regular",
					"text" : "shaker~"
				}

			}
, 			{
				"box" : 				{
					"id" : "obj-12",
					"maxclass" : "message",
					"numinlets" : 2,
					"numoutlets" : 1,
					"outlettype" : [ "" ],
					"patching_rect" : [ 11.999999761581421, 213.400005578994751, 52.0, 22.0 ],
					"presentation" : 1,
					"presentation_rect" : [ 12.5, 267.711114982763945, 80.0, 22.0 ],
					"style" : "Max 12 Regular",
					"text" : "sekere~"
				}

			}
, 			{
				"box" : 				{
					"id" : "obj-10",
					"maxclass" : "message",
					"numinlets" : 2,
					"numoutlets" : 1,
					"outlettype" : [ "" ],
					"patching_rect" : [ 11.999999761581421, 180.066671252250671, 42.0, 22.0 ],
					"presentation" : 1,
					"presentation_rect" : [ 12.5, 237.67407783534793, 80.0, 22.0 ],
					"style" : "Max 12 Regular",
					"text" : "guiro~"
				}

			}
, 			{
				"box" : 				{
					"id" : "obj-8",
					"maxclass" : "message",
					"numinlets" : 2,
					"numoutlets" : 1,
					"outlettype" : [ "" ],
					"patching_rect" : [ 11.999999761581421, 146.733336925506592, 54.0, 22.0 ],
					"presentation" : 1,
					"presentation_rect" : [ 12.5, 207.637040687931915, 80.0, 22.0 ],
					"style" : "Max 12 Regular",
					"text" : "cabasa~"
				}

			}
, 			{
				"box" : 				{
					"id" : "obj-6",
					"maxclass" : "message",
					"numinlets" : 2,
					"numoutlets" : 1,
					"outlettype" : [ "" ],
					"patching_rect" : [ 11.999999761581421, 111.733336925506592, 59.0, 22.0 ],
					"presentation" : 1,
					"presentation_rect" : [ 12.5, 177.6000035405159, 80.0, 22.0 ],
					"style" : "Max 12 Regular",
					"text" : "bamboo~"
				}

			}
, 			{
				"box" : 				{
					"id" : "obj-18",
					"maxclass" : "message",
					"numinlets" : 2,
					"numoutlets" : 1,
					"outlettype" : [ "" ],
					"patching_rect" : [ 12.00000387430191, 314.733336925506592, 42.0, 22.0 ],
					"presentation" : 1,
					"presentation_rect" : [ 256.5, 207.822226425011991, 80.0, 22.0 ],
					"style" : "Max 12 Regular",
					"text" : "tamb~"
				}

			}
, 			{
				"box" : 				{
					"id" : "obj-16",
					"maxclass" : "message",
					"numinlets" : 2,
					"numoutlets" : 1,
					"outlettype" : [ "" ],
					"patching_rect" : [ 12.00000387430191, 282.400002598762512, 47.0, 22.0 ],
					"presentation" : 1,
					"presentation_rect" : [ 256.5, 177.785189277595975, 80.0, 22.0 ],
					"style" : "Max 12 Regular",
					"text" : "sleigh~"
				}

			}
, 			{
				"box" : 				{
					"id" : "obj-24",
					"maxclass" : "message",
					"numinlets" : 2,
					"numoutlets" : 1,
					"outlettype" : [ "" ],
					"patching_rect" : [ 12.00000387430191, 382.066671252250671, 58.0, 22.0 ],
					"presentation" : 1,
					"presentation_rect" : [ 256.5, 297.933337867260036, 80.0, 22.0 ],
					"style" : "Max 12 Regular",
					"text" : "shakers~"
				}

			}
, 			{
				"box" : 				{
					"id" : "obj-22",
					"maxclass" : "message",
					"numinlets" : 2,
					"numoutlets" : 1,
					"outlettype" : [ "" ],
					"patching_rect" : [ 12.00000387430191, 415.733336925506592, 78.0, 22.0 ],
					"presentation" : 1,
					"presentation_rect" : [ 256.5, 267.896300719844021, 80.0, 22.0 ],
					"style" : "Max 12 Regular",
					"text" : "metashaker~"
				}

			}
, 			{
				"box" : 				{
					"fontface" : 0,
					"fontname" : "Futura",
					"fontsize" : 18.0,
					"id" : "obj-1",
					"maxclass" : "comment",
					"numinlets" : 1,
					"numoutlets" : 0,
					"patching_rect" : [ 7.5, 67.0, 131.0, 30.0 ],
					"presentation" : 1,
					"presentation_rect" : [ 7.5, 67.0, 131.0, 30.0 ],
					"text" : "Shakers"
				}

			}
, 			{
				"box" : 				{
					"fontface" : 1,
					"fontname" : "Futura Bold",
					"fontsize" : 36.0,
					"id" : "obj-4",
					"maxclass" : "comment",
					"numinlets" : 1,
					"numoutlets" : 0,
					"patching_rect" : [ 7.5, 12.0, 203.0, 53.0 ],
					"presentation" : 1,
					"presentation_rect" : [ 7.5, 12.0, 203.0, 53.0 ],
					"text" : "PeRColate"
				}

			}
 ],
		"lines" : [ 			{
				"patchline" : 				{
					"destination" : [ "obj-3", 0 ],
					"source" : [ "obj-10", 0 ]
				}

			}
, 			{
				"patchline" : 				{
					"destination" : [ "obj-3", 0 ],
					"source" : [ "obj-12", 0 ]
				}

			}
, 			{
				"patchline" : 				{
					"destination" : [ "obj-3", 0 ],
					"source" : [ "obj-14", 0 ]
				}

			}
, 			{
				"patchline" : 				{
					"destination" : [ "obj-3", 0 ],
					"source" : [ "obj-16", 0 ]
				}

			}
, 			{
				"patchline" : 				{
					"destination" : [ "obj-3", 0 ],
					"source" : [ "obj-18", 0 ]
				}

			}
, 			{
				"patchline" : 				{
					"destination" : [ "obj-3", 0 ],
					"source" : [ "obj-20", 0 ]
				}

			}
, 			{
				"patchline" : 				{
					"destination" : [ "obj-3", 0 ],
					"source" : [ "obj-22", 0 ]
				}

			}
, 			{
				"patchline" : 				{
					"destination" : [ "obj-3", 0 ],
					"source" : [ "obj-24", 0 ]
				}

			}
, 			{
				"patchline" : 				{
					"destination" : [ "obj-5", 0 ],
					"source" : [ "obj-3", 0 ]
				}

			}
, 			{
				"patchline" : 				{
					"destination" : [ "obj-2", 0 ],
					"source" : [ "obj-5", 0 ]
				}

			}
, 			{
				"patchline" : 				{
					"destination" : [ "obj-3", 0 ],
					"source" : [ "obj-6", 0 ]
				}

			}
, 			{
				"patchline" : 				{
					"destination" : [ "obj-3", 0 ],
					"source" : [ "obj-8", 0 ]
				}

			}
 ],
		"dependency_cache" : [  ],
		"autosave" : 0,
		"styles" : [ 			{
				"name" : "Audiomix",
				"default" : 				{
					"bgfillcolor" : 					{
						"type" : "gradient",
						"color1" : [ 0.376471, 0.384314, 0.4, 1.0 ],
						"color2" : [ 0.290196, 0.309804, 0.301961, 1.0 ],
						"color" : [ 0.290196, 0.309804, 0.301961, 1.0 ],
						"angle" : 270.0,
						"proportion" : 0.39
					}

				}
,
				"parentstyle" : "",
				"multi" : 0
			}
, 			{
				"name" : "Max 12 Regular",
				"parentstyle" : "",
				"multi" : 0
			}
 ]
	}

}
