{
	"patcher" : 	{
		"fileversion" : 1,
		"appversion" : 		{
			"major" : 8,
			"minor" : 2,
			"revision" : 0,
			"architecture" : "x64",
			"modernui" : 1
		}
,
		"classnamespace" : "box",
		"rect" : [ 47.0, 94.0, 559.0, 368.0 ],
		"bglocked" : 0,
		"openinpresentation" : 1,
		"default_fontsize" : 12.0,
		"default_fontface" : 0,
		"default_fontname" : "Arial",
		"gridonopen" : 1,
		"gridsize" : [ 15.0, 15.0 ],
		"gridsnaponopen" : 1,
		"objectsnaponopen" : 1,
		"statusbarvisible" : 2,
		"toolbarvisible" : 1,
		"lefttoolbarpinned" : 0,
		"toptoolbarpinned" : 0,
		"righttoolbarpinned" : 0,
		"bottomtoolbarpinned" : 0,
		"toolbars_unpinned_last_save" : 0,
		"tallnewobj" : 0,
		"boxanimatetime" : 200,
		"enablehscroll" : 1,
		"enablevscroll" : 1,
		"devicewidth" : 0.0,
		"description" : "",
		"digest" : "",
		"tags" : "",
		"style" : "",
		"subpatcher_template" : "",
		"assistshowspatchername" : 0,
		"boxes" : [ 			{
				"box" : 				{
					"fontface" : 0,
					"fontname" : "Lato",
					"fontsize" : 12.0,
					"id" : "obj-27",
					"linecount" : 8,
					"maxclass" : "comment",
					"numinlets" : 1,
					"numoutlets" : 0,
					"patching_rect" : [ 117.00000011920929, 323.584616746352253, 60.0, 122.0 ],
					"presentation" : 1,
					"presentation_linecount" : 2,
					"presentation_rect" : [ 111.50000011920929, 252.669231680723271, 157.0, 35.0 ],
					"text" : "Smooth signals with control over curve coefficients"
				}

			}
, 			{
				"box" : 				{
					"fontface" : 0,
					"fontname" : "Lato",
					"fontsize" : 12.0,
					"id" : "obj-24",
					"linecount" : 2,
					"maxclass" : "comment",
					"numinlets" : 1,
					"numoutlets" : 0,
					"patching_rect" : [ 110.00000011920929, 286.4000004529953, 60.0, 35.0 ],
					"presentation" : 1,
					"presentation_rect" : [ 392.5, 115.200000834465015, 84.0, 21.0 ],
					"text" : "Signal inverter"
				}

			}
, 			{
				"box" : 				{
					"fontface" : 0,
					"fontname" : "Lato",
					"fontsize" : 12.0,
					"id" : "obj-23",
					"linecount" : 2,
					"maxclass" : "comment",
					"numinlets" : 1,
					"numoutlets" : 0,
					"patching_rect" : [ 109.00000011920929, 255.4000004529953, 60.0, 35.0 ],
					"presentation" : 1,
					"presentation_rect" : [ 111.50000011920929, 328.403847103852456, 84.0, 21.0 ],
					"text" : "Signal rounder"
				}

			}
, 			{
				"box" : 				{
					"fontface" : 0,
					"fontname" : "Lato",
					"fontsize" : 12.0,
					"id" : "obj-22",
					"linecount" : 4,
					"maxclass" : "comment",
					"numinlets" : 1,
					"numoutlets" : 0,
					"patching_rect" : [ 393.0, 408.584616746352253, 61.0, 64.0 ],
					"presentation" : 1,
					"presentation_linecount" : 2,
					"presentation_rect" : [ 392.5, 181.634616257594132, 137.0, 35.0 ],
					"text" : "Reverse sample order in a vector"
				}

			}
, 			{
				"box" : 				{
					"fontface" : 0,
					"fontname" : "Lato",
					"fontsize" : 12.0,
					"id" : "obj-21",
					"linecount" : 6,
					"maxclass" : "comment",
					"numinlets" : 1,
					"numoutlets" : 0,
					"patching_rect" : [ 458.0, 339.584616746352253, 61.0, 93.0 ],
					"presentation" : 1,
					"presentation_linecount" : 2,
					"presentation_rect" : [ 111.50000011920929, 176.934616257594143, 136.0, 35.0 ],
					"text" : "Output greatest N samples in a vector"
				}

			}
, 			{
				"box" : 				{
					"fontface" : 0,
					"fontname" : "Lato",
					"fontsize" : 12.0,
					"id" : "obj-20",
					"linecount" : 3,
					"maxclass" : "comment",
					"numinlets" : 1,
					"numoutlets" : 0,
					"patching_rect" : [ 452.0, 278.353847199219899, 61.0, 50.0 ],
					"presentation" : 1,
					"presentation_rect" : [ 392.5, 146.319230806536268, 102.0, 21.0 ],
					"text" : "Signal randomizer"
				}

			}
, 			{
				"box" : 				{
					"fontface" : 0,
					"fontname" : "Lato",
					"fontsize" : 12.0,
					"id" : "obj-19",
					"linecount" : 4,
					"maxclass" : "comment",
					"numinlets" : 1,
					"numoutlets" : 0,
					"patching_rect" : [ 385.0, 234.353847199219899, 61.0, 64.0 ],
					"presentation" : 1,
					"presentation_rect" : [ 111.50000011920929, 221.801923969158707, 161.0, 21.0 ],
					"text" : "Three-way signal comparator"
				}

			}
, 			{
				"box" : 				{
					"fontface" : 0,
					"fontname" : "Lato",
					"fontsize" : 12.0,
					"id" : "obj-18",
					"linecount" : 4,
					"maxclass" : "comment",
					"numinlets" : 1,
					"numoutlets" : 0,
					"patching_rect" : [ 179.0, 214.276924016842486, 60.0, 64.0 ],
					"presentation" : 1,
					"presentation_rect" : [ 111.50000011920929, 297.536539392287864, 165.0, 21.0 ],
					"text" : "Filter out slow-moving signals"
				}

			}
, 			{
				"box" : 				{
					"fontface" : 0,
					"fontname" : "Lato",
					"fontsize" : 12.0,
					"id" : "obj-17",
					"linecount" : 3,
					"maxclass" : "comment",
					"numinlets" : 1,
					"numoutlets" : 0,
					"patching_rect" : [ 419.0, 107.353847199219899, 61.0, 50.0 ],
					"presentation" : 1,
					"presentation_rect" : [ 392.5, 298.933515664802144, 128.0, 21.0 ],
					"text" : "Track zero-crossings"
				}

			}
, 			{
				"box" : 				{
					"fontface" : 0,
					"fontname" : "Lato",
					"fontsize" : 12.0,
					"id" : "obj-16",
					"linecount" : 4,
					"maxclass" : "comment",
					"numinlets" : 1,
					"numoutlets" : 0,
					"patching_rect" : [ 518.0, 257.276924016842486, 61.0, 64.0 ],
					"presentation" : 1,
					"presentation_rect" : [ 392.5, 261.069231680723249, 128.0, 21.0 ],
					"text" : "Track signal crossovers"
				}

			}
, 			{
				"box" : 				{
					"fontface" : 0,
					"fontname" : "Lato",
					"fontsize" : 12.0,
					"id" : "obj-15",
					"linecount" : 4,
					"maxclass" : "comment",
					"numinlets" : 1,
					"numoutlets" : 0,
					"patching_rect" : [ 312.0, 127.276924016842486, 61.0, 64.0 ],
					"presentation" : 1,
					"presentation_linecount" : 2,
					"presentation_rect" : [ 392.5, 218.101923969158662, 117.0, 35.0 ],
					"text" : "Audio-rate random number generator"
				}

			}
, 			{
				"box" : 				{
					"fontface" : 0,
					"fontname" : "Lato",
					"fontsize" : 12.0,
					"id" : "obj-14",
					"linecount" : 2,
					"maxclass" : "comment",
					"numinlets" : 1,
					"numoutlets" : 0,
					"patching_rect" : [ 79.5, 155.200000834465015, 58.0, 35.0 ],
					"presentation" : 1,
					"presentation_rect" : [ 111.50000011920929, 146.067308546029579, 87.0, 21.0 ],
					"text" : "Closest to zero"
				}

			}
, 			{
				"box" : 				{
					"fontface" : 0,
					"fontname" : "Lato",
					"fontsize" : 12.0,
					"id" : "obj-13",
					"linecount" : 3,
					"maxclass" : "comment",
					"numinlets" : 1,
					"numoutlets" : 0,
					"patching_rect" : [ 234.5, 127.433337867260036, 58.0, 50.0 ],
					"presentation" : 1,
					"presentation_rect" : [ 111.50000011920929, 115.200000834465015, 106.0, 21.0 ],
					"text" : "Furthest from zero"
				}

			}
, 			{
				"box" : 				{
					"id" : "obj-5",
					"maxclass" : "newobj",
					"numinlets" : 1,
					"numoutlets" : 1,
					"outlettype" : [ "" ],
					"patching_rect" : [ 11.399999856948853, 410.0, 51.0, 22.0 ],
					"text" : "pcontrol"
				}

			}
, 			{
				"box" : 				{
					"id" : "obj-7",
					"maxclass" : "message",
					"numinlets" : 2,
					"numoutlets" : 1,
					"outlettype" : [ "" ],
					"patching_rect" : [ 11.399999856948853, 380.0, 48.0, 22.0 ],
					"text" : "help $1"
				}

			}
, 			{
				"box" : 				{
					"id" : "obj-9",
					"maxclass" : "newobj",
					"numinlets" : 1,
					"numoutlets" : 1,
					"outlettype" : [ "" ],
					"patching_rect" : [ 11.399999856948853, 349.0, 94.0, 22.0 ],
					"text" : "prepend symbol"
				}

			}
, 			{
				"box" : 				{
					"id" : "obj-73",
					"maxclass" : "message",
					"numinlets" : 2,
					"numoutlets" : 1,
					"outlettype" : [ "" ],
					"patching_rect" : [ 350.200000083446525, 291.430770441201958, 55.0, 22.0 ],
					"presentation" : 1,
					"presentation_rect" : [ 299.300004220008873, 297.536539392287807, 84.199995779991127, 22.0 ],
					"style" : "Max 12 Regular",
					"text" : "weave~"
				}

			}
, 			{
				"box" : 				{
					"id" : "obj-76",
					"maxclass" : "message",
					"numinlets" : 2,
					"numoutlets" : 1,
					"outlettype" : [ "" ],
					"patching_rect" : [ 350.200000083446525, 262.353847258824544, 56.0, 22.0 ],
					"presentation" : 1,
					"presentation_rect" : [ 299.300004220008873, 261.069231680723249, 84.199995779991127, 22.0 ],
					"style" : "Max 12 Regular",
					"text" : "waffle~"
				}

			}
, 			{
				"box" : 				{
					"id" : "obj-165",
					"maxclass" : "message",
					"numinlets" : 2,
					"numoutlets" : 1,
					"outlettype" : [ "" ],
					"patching_rect" : [ 15.200000083446525, 298.661539988334368, 45.0, 22.0 ],
					"presentation" : 1,
					"presentation_rect" : [ 299.300004220008873, 188.134616257594132, 84.199995779991127, 22.0 ],
					"style" : "Max 12 Regular",
					"text" : "klutz~"
				}

			}
, 			{
				"box" : 				{
					"id" : "obj-166",
					"maxclass" : "message",
					"numinlets" : 2,
					"numoutlets" : 1,
					"outlettype" : [ "" ],
					"patching_rect" : [ 15.200000083446525, 269.584616805956898, 49.0, 22.0 ],
					"presentation" : 1,
					"presentation_rect" : [ 299.49999988079071, 151.667308546029574, 84.0, 22.0 ],
					"style" : "Max 12 Regular",
					"text" : "jitter~"
				}

			}
, 			{
				"box" : 				{
					"id" : "obj-167",
					"maxclass" : "message",
					"numinlets" : 2,
					"numoutlets" : 1,
					"outlettype" : [ "" ],
					"patching_rect" : [ 352.200000083446525, 171.507693623579428, 37.0, 22.0 ],
					"presentation" : 1,
					"presentation_rect" : [ 299.49999988079071, 115.200000834465015, 84.0, 22.0 ],
					"style" : "Max 12 Regular",
					"text" : "flip~"
				}

			}
, 			{
				"box" : 				{
					"id" : "obj-168",
					"maxclass" : "message",
					"numinlets" : 2,
					"numoutlets" : 1,
					"outlettype" : [ "" ],
					"patching_rect" : [ 352.200000083446525, 142.430770441202014, 44.0, 22.0 ],
					"presentation" : 1,
					"presentation_rect" : [ 17.5, 328.403847103852456, 84.0, 22.0 ],
					"style" : "Max 12 Regular",
					"text" : "escal~"
				}

			}
, 			{
				"box" : 				{
					"id" : "obj-169",
					"maxclass" : "message",
					"numinlets" : 2,
					"numoutlets" : 1,
					"outlettype" : [ "" ],
					"patching_rect" : [ 352.200000083446525, 113.353847258824572, 51.0, 22.0 ],
					"presentation" : 1,
					"presentation_rect" : [ 17.5, 221.801923969158764, 84.0, 22.0 ],
					"style" : "Max 12 Regular",
					"text" : "chase~"
				}

			}
, 			{
				"box" : 				{
					"id" : "obj-170",
					"maxclass" : "message",
					"numinlets" : 2,
					"numoutlets" : 1,
					"outlettype" : [ "" ],
					"patching_rect" : [ 352.200000083446525, 84.276924076447131, 58.0, 22.0 ],
					"presentation" : 1,
					"presentation_rect" : [ 17.5, 150.733975212696265, 84.0, 22.0 ],
					"style" : "Max 12 Regular",
					"text" : "absmin~"
				}

			}
, 			{
				"box" : 				{
					"id" : "obj-171",
					"maxclass" : "message",
					"numinlets" : 2,
					"numoutlets" : 1,
					"outlettype" : [ "" ],
					"patching_rect" : [ 352.200000083446525, 55.20000089406966, 64.0, 22.0 ],
					"presentation" : 1,
					"presentation_rect" : [ 17.5, 115.200000834465015, 84.0, 22.0 ],
					"style" : "Max 12 Regular",
					"text" : "absmax~"
				}

			}
, 			{
				"box" : 				{
					"id" : "obj-92",
					"maxclass" : "message",
					"numinlets" : 2,
					"numoutlets" : 1,
					"outlettype" : [ "" ],
					"patching_rect" : [ 11.399999856948853, 116.20000089406966, 59.0, 22.0 ],
					"presentation" : 1,
					"presentation_rect" : [ 299.300004220008873, 224.60192396915869, 84.199995779991127, 22.0 ],
					"style" : "Max 12 Regular",
					"text" : "random~"
				}

			}
, 			{
				"box" : 				{
					"id" : "obj-3",
					"maxclass" : "message",
					"numinlets" : 2,
					"numoutlets" : 1,
					"outlettype" : [ "" ],
					"patching_rect" : [ 11.399999856948853, 223.160001432895683, 47.0, 22.0 ],
					"presentation" : 1,
					"presentation_rect" : [ 17.5, 186.267949590927515, 84.0, 22.0 ],
					"style" : "Max 12 Regular",
					"text" : "casey~"
				}

			}
, 			{
				"box" : 				{
					"id" : "obj-87",
					"maxclass" : "message",
					"numinlets" : 2,
					"numoutlets" : 1,
					"outlettype" : [ "" ],
					"patching_rect" : [ 11.399999856948853, 184.760001456737541, 56.0, 22.0 ],
					"presentation" : 1,
					"presentation_rect" : [ 17.5, 292.869872725621235, 84.0, 22.0 ],
					"style" : "Max 12 Regular",
					"text" : "dcblock~"
				}

			}
, 			{
				"box" : 				{
					"id" : "obj-26",
					"maxclass" : "message",
					"numinlets" : 2,
					"numoutlets" : 1,
					"outlettype" : [ "" ],
					"patching_rect" : [ 11.399999856948853, 153.120001387596119, 84.0, 22.0 ],
					"presentation" : 1,
					"presentation_rect" : [ 17.5, 257.335898347390014, 84.0, 22.0 ],
					"style" : "Max 12 Regular",
					"text" : "curvesmooth~"
				}

			}
, 			{
				"box" : 				{
					"fontface" : 0,
					"fontname" : "Futura",
					"fontsize" : 18.0,
					"id" : "obj-1",
					"maxclass" : "comment",
					"numinlets" : 1,
					"numoutlets" : 0,
					"patching_rect" : [ 7.5, 67.0, 95.0, 30.0 ],
					"presentation" : 1,
					"presentation_rect" : [ 7.5, 67.0, 94.0, 30.0 ],
					"text" : "Utilities"
				}

			}
, 			{
				"box" : 				{
					"fontface" : 1,
					"fontname" : "Futura Bold",
					"fontsize" : 36.0,
					"id" : "obj-4",
					"maxclass" : "comment",
					"numinlets" : 1,
					"numoutlets" : 0,
					"patching_rect" : [ 7.5, 12.0, 203.0, 53.0 ],
					"presentation" : 1,
					"presentation_rect" : [ 7.5, 12.0, 203.0, 53.0 ],
					"text" : "PeRColate"
				}

			}
 ],
		"lines" : [ 			{
				"patchline" : 				{
					"destination" : [ "obj-9", 0 ],
					"source" : [ "obj-165", 0 ]
				}

			}
, 			{
				"patchline" : 				{
					"destination" : [ "obj-9", 0 ],
					"source" : [ "obj-166", 0 ]
				}

			}
, 			{
				"patchline" : 				{
					"destination" : [ "obj-9", 0 ],
					"source" : [ "obj-167", 0 ]
				}

			}
, 			{
				"patchline" : 				{
					"destination" : [ "obj-9", 0 ],
					"source" : [ "obj-168", 0 ]
				}

			}
, 			{
				"patchline" : 				{
					"destination" : [ "obj-9", 0 ],
					"source" : [ "obj-169", 0 ]
				}

			}
, 			{
				"patchline" : 				{
					"destination" : [ "obj-9", 0 ],
					"source" : [ "obj-170", 0 ]
				}

			}
, 			{
				"patchline" : 				{
					"destination" : [ "obj-9", 0 ],
					"source" : [ "obj-171", 0 ]
				}

			}
, 			{
				"patchline" : 				{
					"destination" : [ "obj-9", 0 ],
					"source" : [ "obj-26", 0 ]
				}

			}
, 			{
				"patchline" : 				{
					"destination" : [ "obj-9", 0 ],
					"source" : [ "obj-3", 0 ]
				}

			}
, 			{
				"patchline" : 				{
					"destination" : [ "obj-5", 0 ],
					"source" : [ "obj-7", 0 ]
				}

			}
, 			{
				"patchline" : 				{
					"destination" : [ "obj-9", 0 ],
					"source" : [ "obj-73", 0 ]
				}

			}
, 			{
				"patchline" : 				{
					"destination" : [ "obj-9", 0 ],
					"source" : [ "obj-76", 0 ]
				}

			}
, 			{
				"patchline" : 				{
					"destination" : [ "obj-9", 0 ],
					"source" : [ "obj-87", 0 ]
				}

			}
, 			{
				"patchline" : 				{
					"destination" : [ "obj-7", 0 ],
					"source" : [ "obj-9", 0 ]
				}

			}
, 			{
				"patchline" : 				{
					"destination" : [ "obj-9", 0 ],
					"source" : [ "obj-92", 0 ]
				}

			}
 ],
		"dependency_cache" : [  ],
		"autosave" : 0,
		"styles" : [ 			{
				"name" : "Audiomix",
				"default" : 				{
					"bgfillcolor" : 					{
						"type" : "gradient",
						"color1" : [ 0.376471, 0.384314, 0.4, 1.0 ],
						"color2" : [ 0.290196, 0.309804, 0.301961, 1.0 ],
						"color" : [ 0.290196, 0.309804, 0.301961, 1.0 ],
						"angle" : 270.0,
						"proportion" : 0.39
					}

				}
,
				"parentstyle" : "",
				"multi" : 0
			}
, 			{
				"name" : "Max 12 Regular",
				"parentstyle" : "",
				"multi" : 0
			}
 ]
	}

}
