{
	"patcher" : 	{
		"fileversion" : 1,
		"appversion" : 		{
			"major" : 8,
			"minor" : 2,
			"revision" : 0,
			"architecture" : "x64",
			"modernui" : 1
		}
,
		"classnamespace" : "box",
		"rect" : [ 47.0, 89.0, 636.0, 422.0 ],
		"bglocked" : 0,
		"openinpresentation" : 1,
		"default_fontsize" : 12.0,
		"default_fontface" : 0,
		"default_fontname" : "Arial",
		"gridonopen" : 1,
		"gridsize" : [ 15.0, 15.0 ],
		"gridsnaponopen" : 1,
		"objectsnaponopen" : 1,
		"statusbarvisible" : 2,
		"toolbarvisible" : 1,
		"lefttoolbarpinned" : 0,
		"toptoolbarpinned" : 0,
		"righttoolbarpinned" : 0,
		"bottomtoolbarpinned" : 0,
		"toolbars_unpinned_last_save" : 0,
		"tallnewobj" : 0,
		"boxanimatetime" : 200,
		"enablehscroll" : 1,
		"enablevscroll" : 1,
		"devicewidth" : 0.0,
		"description" : "",
		"digest" : "",
		"tags" : "",
		"style" : "",
		"subpatcher_template" : "",
		"assistshowspatchername" : 0,
		"boxes" : [ 			{
				"box" : 				{
					"fontface" : 0,
					"fontname" : "Lato",
					"fontsize" : 12.0,
					"id" : "obj-42",
					"linecount" : 5,
					"maxclass" : "comment",
					"numinlets" : 1,
					"numoutlets" : 0,
					"patching_rect" : [ 402.800000071525574, 372.630496485966546, 72.0, 78.0 ],
					"presentation" : 1,
					"presentation_linecount" : 2,
					"presentation_rect" : [ 404.800000071525574, 371.878654915831589, 203.0, 35.0 ],
					"text" : "FFT bin-specific vector-based compander"
				}

			}
, 			{
				"box" : 				{
					"fontface" : 0,
					"fontname" : "Lato",
					"fontsize" : 12.0,
					"id" : "obj-41",
					"linecount" : 3,
					"maxclass" : "comment",
					"numinlets" : 1,
					"numoutlets" : 0,
					"patching_rect" : [ 403.800000071525574, 336.972080563123086, 72.0, 50.0 ],
					"presentation" : 1,
					"presentation_rect" : [ 404.800000071525574, 334.630496485966546, 203.0, 21.0 ],
					"text" : "Vector-based compander"
				}

			}
, 			{
				"box" : 				{
					"fontface" : 0,
					"fontname" : "Lato",
					"fontsize" : 12.0,
					"id" : "obj-40",
					"linecount" : 4,
					"maxclass" : "comment",
					"numinlets" : 1,
					"numoutlets" : 0,
					"patching_rect" : [ 410.800000071525574, 296.378141211239665, 72.0, 64.0 ],
					"presentation" : 1,
					"presentation_rect" : [ 404.800000071525574, 298.972080563123086, 203.0, 21.0 ],
					"text" : "Directional impulse response models"
				}

			}
, 			{
				"box" : 				{
					"fontface" : 0,
					"fontname" : "Lato",
					"fontsize" : 12.0,
					"id" : "obj-39",
					"linecount" : 5,
					"maxclass" : "comment",
					"numinlets" : 1,
					"numoutlets" : 0,
					"patching_rect" : [ 409.800000071525574, 260.155248717436166, 72.0, 78.0 ],
					"presentation" : 1,
					"presentation_rect" : [ 404.800000071525574, 263.313664640279626, 192.0, 21.0 ],
					"text" : "Stereo granulator and pitch-shifter"
				}

			}
, 			{
				"box" : 				{
					"fontface" : 0,
					"fontname" : "Lato",
					"fontsize" : 12.0,
					"id" : "obj-38",
					"linecount" : 2,
					"maxclass" : "comment",
					"numinlets" : 1,
					"numoutlets" : 0,
					"patching_rect" : [ 416.800000071525574, 202.877627506647741, 73.0, 35.0 ],
					"presentation" : 1,
					"presentation_rect" : [ 404.800000071525574, 192.127884358943703, 173.0, 21.0 ],
					"text" : "scrub~ with feedback"
				}

			}
, 			{
				"box" : 				{
					"fontface" : 0,
					"fontname" : "Lato",
					"fontsize" : 12.0,
					"id" : "obj-37",
					"linecount" : 3,
					"maxclass" : "comment",
					"numinlets" : 1,
					"numoutlets" : 0,
					"patching_rect" : [ 413.800000071525574, 166.627370654351779, 72.0, 50.0 ],
					"presentation" : 1,
					"presentation_rect" : [ 404.800000071525574, 228.155248717436194, 173.0, 21.0 ],
					"text" : "Triggered delay-line scrubber"
				}

			}
, 			{
				"box" : 				{
					"fontface" : 0,
					"fontname" : "Lato",
					"fontsize" : 12.0,
					"id" : "obj-36",
					"linecount" : 2,
					"maxclass" : "comment",
					"numinlets" : 1,
					"numoutlets" : 0,
					"patching_rect" : [ 413.800000071525574, 130.377113802055817, 72.0, 35.0 ],
					"presentation" : 1,
					"presentation_rect" : [ 404.800000071525574, 153.627370654351779, 173.0, 21.0 ],
					"text" : "Delay-line scrubber"
				}

			}
, 			{
				"box" : 				{
					"fontface" : 0,
					"fontname" : "Lato",
					"fontsize" : 12.0,
					"id" : "obj-35",
					"linecount" : 3,
					"maxclass" : "comment",
					"numinlets" : 1,
					"numoutlets" : 0,
					"patching_rect" : [ 427.499995648860931, 98.996832794592763, 72.0, 50.0 ],
					"presentation" : 1,
					"presentation_rect" : [ 404.800000071525574, 118.377113802055817, 173.0, 21.0 ],
					"text" : "record~ with feedback"
				}

			}
, 			{
				"box" : 				{
					"fontface" : 0,
					"fontname" : "Lato",
					"fontsize" : 12.0,
					"id" : "obj-34",
					"linecount" : 5,
					"maxclass" : "comment",
					"numinlets" : 1,
					"numoutlets" : 0,
					"patching_rect" : [ 105.499995648860931, 367.972080563123086, 73.0, 78.0 ],
					"presentation" : 1,
					"presentation_linecount" : 2,
					"presentation_rect" : [ 106.499995648860931, 334.630496485966546, 173.0, 35.0 ],
					"text" : "Stretch FFT bins on their amplitude axis"
				}

			}
, 			{
				"box" : 				{
					"fontface" : 0,
					"fontname" : "Lato",
					"fontsize" : 12.0,
					"id" : "obj-33",
					"linecount" : 5,
					"maxclass" : "comment",
					"numinlets" : 1,
					"numoutlets" : 0,
					"patching_rect" : [ 106.499995648860931, 273.293334420522001, 73.0, 78.0 ],
					"presentation" : 1,
					"presentation_linecount" : 2,
					"presentation_rect" : [ 106.499995648860931, 294.628398063535656, 173.0, 35.0 ],
					"text" : "Stretch FFT bins on their frequency axis"
				}

			}
, 			{
				"box" : 				{
					"fontface" : 0,
					"fontname" : "Lato",
					"fontsize" : 12.0,
					"id" : "obj-32",
					"linecount" : 3,
					"maxclass" : "comment",
					"numinlets" : 1,
					"numoutlets" : 0,
					"patching_rect" : [ 110.499995648860931, 241.140001052617976, 72.0, 50.0 ],
					"presentation" : 1,
					"presentation_rect" : [ 106.499995648860931, 263.313664640279626, 173.0, 21.0 ],
					"text" : "CCRMA reverberator"
				}

			}
, 			{
				"box" : 				{
					"fontface" : 0,
					"fontname" : "Lato",
					"fontsize" : 12.0,
					"id" : "obj-31",
					"linecount" : 4,
					"maxclass" : "comment",
					"numinlets" : 1,
					"numoutlets" : 0,
					"patching_rect" : [ 123.499995648860931, 254.98666768471395, 72.0, 64.0 ],
					"presentation" : 1,
					"presentation_rect" : [ 106.499995648860931, 228.155248717436194, 173.0, 21.0 ],
					"text" : "Perry R. Cook's reverberator"
				}

			}
, 			{
				"box" : 				{
					"fontface" : 0,
					"fontname" : "Lato",
					"fontsize" : 12.0,
					"id" : "obj-28",
					"linecount" : 4,
					"maxclass" : "comment",
					"numinlets" : 1,
					"numoutlets" : 0,
					"patching_rect" : [ 531.800000071525574, 75.680000948905899, 72.0, 64.0 ],
					"presentation" : 1,
					"presentation_rect" : [ 106.499995648860931, 191.996832794592763, 173.0, 21.0 ],
					"text" : "John Chowning's reverberator"
				}

			}
, 			{
				"box" : 				{
					"fontface" : 0,
					"fontname" : "Lato",
					"fontsize" : 12.0,
					"id" : "obj-27",
					"linecount" : 3,
					"maxclass" : "comment",
					"numinlets" : 1,
					"numoutlets" : 0,
					"patching_rect" : [ 106.800000071525574, 267.040000879764534, 72.0, 50.0 ],
					"presentation" : 1,
					"presentation_rect" : [ 106.499995648860931, 120.680000948905899, 126.0, 21.0 ],
					"text" : "Perry R. Cook's chorus"
				}

			}
, 			{
				"box" : 				{
					"fontface" : 0,
					"fontname" : "Lato",
					"fontsize" : 12.0,
					"id" : "obj-25",
					"maxclass" : "comment",
					"numinlets" : 1,
					"numoutlets" : 0,
					"patching_rect" : [ 107.800000071525574, 123.040000879764563, 72.0, 21.0 ],
					"presentation" : 1,
					"presentation_rect" : [ 106.499995648860931, 154.833334316809925, 72.0, 21.0 ],
					"text" : "Pitch shifter"
				}

			}
, 			{
				"box" : 				{
					"id" : "obj-3",
					"maxclass" : "newobj",
					"numinlets" : 1,
					"numoutlets" : 1,
					"outlettype" : [ "" ],
					"patching_rect" : [ 9.800004422664642, 437.0, 51.0, 22.0 ],
					"text" : "pcontrol"
				}

			}
, 			{
				"box" : 				{
					"id" : "obj-13",
					"maxclass" : "message",
					"numinlets" : 2,
					"numoutlets" : 1,
					"outlettype" : [ "" ],
					"patching_rect" : [ 9.800004422664642, 407.0, 48.0, 22.0 ],
					"text" : "help $1"
				}

			}
, 			{
				"box" : 				{
					"id" : "obj-14",
					"maxclass" : "newobj",
					"numinlets" : 1,
					"numoutlets" : 1,
					"outlettype" : [ "" ],
					"patching_rect" : [ 9.800004422664642, 376.0, 94.0, 22.0 ],
					"text" : "prepend symbol"
				}

			}
, 			{
				"box" : 				{
					"id" : "obj-54",
					"maxclass" : "message",
					"numinlets" : 2,
					"numoutlets" : 1,
					"outlettype" : [ "" ],
					"patching_rect" : [ 298.399999856948853, 329.000001162290573, 48.0, 22.0 ],
					"presentation" : 1,
					"presentation_rect" : [ 307.399999856948853, 298.972080563123086, 78.0, 22.0 ],
					"style" : "Max 12 Regular",
					"text" : "nbody~"
				}

			}
, 			{
				"box" : 				{
					"id" : "obj-57",
					"maxclass" : "message",
					"numinlets" : 2,
					"numoutlets" : 1,
					"outlettype" : [ "" ],
					"patching_rect" : [ 298.399999856948853, 214.680001127719891, 52.0, 22.0 ],
					"presentation" : 1,
					"presentation_rect" : [ 307.399999856948853, 228.155248717436194, 78.0, 22.0 ],
					"style" : "Max 12 Regular",
					"text" : "flapper~"
				}

			}
, 			{
				"box" : 				{
					"id" : "obj-16",
					"maxclass" : "message",
					"numinlets" : 2,
					"numoutlets" : 1,
					"outlettype" : [ "" ],
					"patching_rect" : [ 17.800004422664642, 155.680000948905928, 75.0, 22.0 ],
					"presentation" : 1,
					"presentation_rect" : [ 14.5, 120.680000948905899, 75.0, 22.0 ],
					"style" : "Max 12 Regular",
					"text" : "prc_chorus~"
				}

			}
, 			{
				"box" : 				{
					"id" : "obj-18",
					"maxclass" : "message",
					"numinlets" : 2,
					"numoutlets" : 1,
					"outlettype" : [ "" ],
					"patching_rect" : [ 17.800004422664642, 123.040000879764563, 57.0, 22.0 ],
					"presentation" : 1,
					"presentation_rect" : [ 14.5, 156.338416871749331, 75.0, 22.0 ],
					"style" : "Max 12 Regular",
					"text" : "pit_shift~"
				}

			}
, 			{
				"box" : 				{
					"id" : "obj-20",
					"maxclass" : "message",
					"numinlets" : 2,
					"numoutlets" : 1,
					"outlettype" : [ "" ],
					"patching_rect" : [ 298.399999856948853, 105.040000879764563, 64.0, 22.0 ],
					"presentation" : 1,
					"presentation_rect" : [ 14.399999856948853, 227.655248717436194, 75.0, 22.0 ],
					"style" : "Max 12 Regular",
					"text" : "PRC_rev~"
				}

			}
, 			{
				"box" : 				{
					"id" : "obj-22",
					"maxclass" : "message",
					"numinlets" : 2,
					"numoutlets" : 1,
					"outlettype" : [ "" ],
					"patching_rect" : [ 298.399999856948853, 78.400000810623169, 48.0, 22.0 ],
					"presentation" : 1,
					"presentation_rect" : [ 15.399999856948853, 263.313664640279626, 74.100000143051147, 22.0 ],
					"style" : "Max 12 Regular",
					"text" : "N_rev~"
				}

			}
, 			{
				"box" : 				{
					"id" : "obj-24",
					"maxclass" : "message",
					"numinlets" : 2,
					"numoutlets" : 1,
					"outlettype" : [ "" ],
					"patching_rect" : [ 298.399999856948853, 47.559999710321449, 54.0, 22.0 ],
					"presentation" : 1,
					"presentation_rect" : [ 14.399999856948853, 191.996832794592763, 75.0, 22.0 ],
					"style" : "Max 12 Regular",
					"text" : "JC_rev~"
				}

			}
, 			{
				"box" : 				{
					"id" : "obj-86",
					"maxclass" : "message",
					"numinlets" : 2,
					"numoutlets" : 1,
					"outlettype" : [ "" ],
					"patching_rect" : [ 298.399999856948853, 286.040001356601692, 56.0, 22.0 ],
					"presentation" : 1,
					"presentation_rect" : [ 307.399999856948853, 263.313664640279626, 78.0, 22.0 ],
					"style" : "Max 12 Regular",
					"text" : "munger~"
				}

			}
, 			{
				"box" : 				{
					"id" : "obj-50",
					"maxclass" : "message",
					"numinlets" : 2,
					"numoutlets" : 1,
					"outlettype" : [ "" ],
					"patching_rect" : [ 298.399999856948853, 249.080001312494289, 48.0, 22.0 ],
					"presentation" : 1,
					"presentation_rect" : [ 307.399999856948853, 192.127884358943703, 78.0, 22.0 ],
					"style" : "Max 12 Regular",
					"text" : "scrubf~"
				}

			}
, 			{
				"box" : 				{
					"id" : "obj-52",
					"maxclass" : "message",
					"numinlets" : 2,
					"numoutlets" : 1,
					"outlettype" : [ "" ],
					"patching_rect" : [ 298.399999856948853, 159.160000717639889, 53.0, 22.0 ],
					"presentation" : 1,
					"presentation_rect" : [ 307.399999856948853, 118.377113802055817, 78.0, 22.0 ],
					"style" : "Max 12 Regular",
					"text" : "recordf~"
				}

			}
, 			{
				"box" : 				{
					"id" : "obj-2",
					"maxclass" : "message",
					"numinlets" : 2,
					"numoutlets" : 1,
					"outlettype" : [ "" ],
					"patching_rect" : [ 298.399999856948853, 183.920001012086857, 45.0, 22.0 ],
					"presentation" : 1,
					"presentation_rect" : [ 307.399999856948853, 153.627370654351779, 78.0, 22.0 ],
					"style" : "Max 12 Regular",
					"text" : "scrub~"
				}

			}
, 			{
				"box" : 				{
					"id" : "obj-6",
					"maxclass" : "message",
					"numinlets" : 2,
					"numoutlets" : 1,
					"outlettype" : [ "" ],
					"patching_rect" : [ 17.800004422664642, 293.880001294612839, 78.0, 22.0 ],
					"presentation" : 1,
					"presentation_rect" : [ 307.399999856948853, 371.878654915831589, 78.0, 22.0 ],
					"style" : "Max 12 Regular",
					"text" : "vcompand2~"
				}

			}
, 			{
				"box" : 				{
					"id" : "obj-8",
					"maxclass" : "message",
					"numinlets" : 2,
					"numoutlets" : 1,
					"outlettype" : [ "" ],
					"patching_rect" : [ 17.800004422664642, 267.240001225471474, 71.0, 22.0 ],
					"presentation" : 1,
					"presentation_rect" : [ 307.399999856948853, 334.630496485966546, 78.0, 22.0 ],
					"style" : "Max 12 Regular",
					"text" : "vcompand~"
				}

			}
, 			{
				"box" : 				{
					"id" : "obj-10",
					"maxclass" : "message",
					"numinlets" : 2,
					"numoutlets" : 1,
					"outlettype" : [ "" ],
					"patching_rect" : [ 17.800004422664642, 240.60000115633008, 48.0, 22.0 ],
					"presentation" : 1,
					"presentation_rect" : [ 14.399999856948853, 334.630496485966546, 75.0, 22.0 ],
					"style" : "Max 12 Regular",
					"text" : "vwarp~"
				}

			}
, 			{
				"box" : 				{
					"id" : "obj-12",
					"maxclass" : "message",
					"numinlets" : 2,
					"numoutlets" : 1,
					"outlettype" : [ "" ],
					"patching_rect" : [ 17.800004422664642, 213.960001087188715, 58.0, 22.0 ],
					"presentation" : 1,
					"presentation_rect" : [ 14.399999856948853, 298.972080563123086, 75.100000143051147, 22.0 ],
					"style" : "Max 12 Regular",
					"text" : "vstretch~"
				}

			}
, 			{
				"box" : 				{
					"fontface" : 0,
					"fontname" : "Futura",
					"fontsize" : 18.0,
					"id" : "obj-1",
					"maxclass" : "comment",
					"numinlets" : 1,
					"numoutlets" : 0,
					"patching_rect" : [ 7.5, 67.0, 95.0, 30.0 ],
					"presentation" : 1,
					"presentation_rect" : [ 7.5, 67.0, 95.0, 30.0 ],
					"text" : "Audio FX"
				}

			}
, 			{
				"box" : 				{
					"fontface" : 1,
					"fontname" : "Futura Bold",
					"fontsize" : 36.0,
					"id" : "obj-4",
					"maxclass" : "comment",
					"numinlets" : 1,
					"numoutlets" : 0,
					"patching_rect" : [ 7.5, 12.0, 203.0, 53.0 ],
					"presentation" : 1,
					"presentation_rect" : [ 7.5, 12.0, 203.0, 53.0 ],
					"text" : "PeRColate"
				}

			}
 ],
		"lines" : [ 			{
				"patchline" : 				{
					"destination" : [ "obj-14", 0 ],
					"source" : [ "obj-10", 0 ]
				}

			}
, 			{
				"patchline" : 				{
					"destination" : [ "obj-14", 0 ],
					"source" : [ "obj-12", 0 ]
				}

			}
, 			{
				"patchline" : 				{
					"destination" : [ "obj-3", 0 ],
					"source" : [ "obj-13", 0 ]
				}

			}
, 			{
				"patchline" : 				{
					"destination" : [ "obj-13", 0 ],
					"source" : [ "obj-14", 0 ]
				}

			}
, 			{
				"patchline" : 				{
					"destination" : [ "obj-14", 0 ],
					"source" : [ "obj-16", 0 ]
				}

			}
, 			{
				"patchline" : 				{
					"destination" : [ "obj-14", 0 ],
					"source" : [ "obj-18", 0 ]
				}

			}
, 			{
				"patchline" : 				{
					"destination" : [ "obj-14", 0 ],
					"source" : [ "obj-2", 0 ]
				}

			}
, 			{
				"patchline" : 				{
					"destination" : [ "obj-14", 0 ],
					"source" : [ "obj-20", 0 ]
				}

			}
, 			{
				"patchline" : 				{
					"destination" : [ "obj-14", 0 ],
					"source" : [ "obj-22", 0 ]
				}

			}
, 			{
				"patchline" : 				{
					"destination" : [ "obj-14", 0 ],
					"source" : [ "obj-24", 0 ]
				}

			}
, 			{
				"patchline" : 				{
					"destination" : [ "obj-14", 0 ],
					"source" : [ "obj-50", 0 ]
				}

			}
, 			{
				"patchline" : 				{
					"destination" : [ "obj-14", 0 ],
					"source" : [ "obj-52", 0 ]
				}

			}
, 			{
				"patchline" : 				{
					"destination" : [ "obj-14", 0 ],
					"source" : [ "obj-54", 0 ]
				}

			}
, 			{
				"patchline" : 				{
					"destination" : [ "obj-14", 0 ],
					"source" : [ "obj-57", 0 ]
				}

			}
, 			{
				"patchline" : 				{
					"destination" : [ "obj-14", 0 ],
					"source" : [ "obj-6", 0 ]
				}

			}
, 			{
				"patchline" : 				{
					"destination" : [ "obj-14", 0 ],
					"source" : [ "obj-8", 0 ]
				}

			}
, 			{
				"patchline" : 				{
					"destination" : [ "obj-14", 0 ],
					"source" : [ "obj-86", 0 ]
				}

			}
 ],
		"dependency_cache" : [  ],
		"autosave" : 0,
		"styles" : [ 			{
				"name" : "Audiomix",
				"default" : 				{
					"bgfillcolor" : 					{
						"type" : "gradient",
						"color1" : [ 0.376471, 0.384314, 0.4, 1.0 ],
						"color2" : [ 0.290196, 0.309804, 0.301961, 1.0 ],
						"color" : [ 0.290196, 0.309804, 0.301961, 1.0 ],
						"angle" : 270.0,
						"proportion" : 0.39
					}

				}
,
				"parentstyle" : "",
				"multi" : 0
			}
, 			{
				"name" : "Max 12 Regular",
				"parentstyle" : "",
				"multi" : 0
			}
 ]
	}

}
